<svg xmlns="http://www.w3.org/2000/svg" viewBox="0 0 64 64" role="img" aria-label="AG">
  <defs>
    <linearGradient id="bg" x1="10" y1="8" x2="56" y2="58" gradientUnits="userSpaceOnUse">
      <stop stop-color="#38BDF8" />
      <stop offset="1" stop-color="#0EA5E9" />
    </linearGradient>
    <radialGradient id="glow" cx="18" cy="12" r="44" gradientUnits="userSpaceOnUse">
      <stop stop-color="#F8FBFF" stop-opacity="0.45" />
      <stop offset="0.45" stop-color="#38BDF8" stop-opacity="0.18" />
      <stop offset="1" stop-color="#020617" stop-opacity="0" />
    </radialGradient>
  </defs>
  <rect width="64" height="64" rx="16" fill="#020617" />
  <rect x="4" y="4" width="56" height="56" rx="14" fill="url(#bg)" />
  <rect x="4" y="4" width="56" height="56" rx="14" fill="url(#glow)" />
  <path d="M16 47 27.2 17h5.6L44 47h-6.1l-2.1-6.1H24.2L22.1 47H16Zm10-11.2h8L30 24.3l-4 11.5Z" fill="#020617" />
  <path
    d="M46.7 47.3c-4.4 0-7.9-1.3-10.5-4-2.6-2.7-3.9-6.5-3.9-11.3 0-4.7 1.3-8.4 4-11.2 2.7-2.8 6.3-4.1 10.8-4.1 2.2 0 4.2.3 5.9 1v5.6c-1.6-.8-3.5-1.2-5.6-1.2-2.8 0-5 .8-6.5 2.5-1.5 1.7-2.3 4.1-2.3 7.3 0 3.3.7 5.8 2.2 7.5 1.5 1.7 3.5 2.5 6 2.5 1.2 0 2.3-.1 3.3-.4v-6.7h-5.5v-5h11.2v15.5c-2.5 1-5.5 1.5-9.1 1.5Z"
    fill="#020617"
  />
</svg>
