<svg xmlns="http://www.w3.org/2000/svg" width="1672" height="941" viewBox="0 0 1672 941" role="img" aria-labelledby="title desc">
  <title id="title">Business billing solutions illustration</title>
  <desc id="desc">Collection of billing, invoicing, inventory and reporting systems for daily business operations.</desc>
  <defs>
    <linearGradient id="bg" x1="0" x2="1" y1="0" y2="1">
      <stop offset="0" stop-color="#020617"/>
      <stop offset=".48" stop-color="#071827"/>
      <stop offset="1" stop-color="#020617"/>
    </linearGradient>
    <linearGradient id="blue" x1="0" x2="1">
      <stop offset="0" stop-color="#38bdf8"/>
      <stop offset="1" stop-color="#0ea5e9"/>
    </linearGradient>
    <filter id="shadow" x="-20%" y="-20%" width="140%" height="140%">
      <feDropShadow dx="0" dy="24" stdDeviation="22" flood-color="#000" flood-opacity=".42"/>
    </filter>
  </defs>
  <rect width="1672" height="941" fill="url(#bg)"/>
  <path d="M0 180h1672M0 360h1672M0 540h1672M0 720h1672M220 0v941M440 0v941M660 0v941M880 0v941M1100 0v941M1320 0v941M1540 0v941" stroke="#38bdf8" stroke-opacity=".045"/>
  <text x="76" y="98" fill="#f8fbff" font-family="Inter, Arial, sans-serif" font-size="46" font-weight="900">Business Billing Solutions</text>
  <text x="76" y="146" fill="#7dd3fc" font-family="Inter, Arial, sans-serif" font-size="23" font-weight="800">Practical systems for billing, invoices, customers and daily operations</text>
  <rect x="96" y="220" width="410" height="560" rx="34" fill="#06101f" stroke="#38bdf8" stroke-opacity=".3" filter="url(#shadow)"/>
  <text x="142" y="286" fill="#f8fbff" font-family="Inter, Arial, sans-serif" font-size="34" font-weight="900">Create Invoice</text>
  <rect x="142" y="330" width="318" height="54" rx="16" fill="#0f2137" stroke="#38bdf8" stroke-opacity=".22"/>
  <rect x="142" y="410" width="318" height="54" rx="16" fill="#0f2137" stroke="#38bdf8" stroke-opacity=".22"/>
  <rect x="142" y="490" width="318" height="54" rx="16" fill="#0f2137" stroke="#38bdf8" stroke-opacity=".22"/>
  <rect x="142" y="590" width="318" height="58" rx="18" fill="url(#blue)"/>
  <text x="180" y="365" fill="#cbd5e1" font-family="Inter, Arial, sans-serif" font-size="18" font-weight="800">Customer</text>
  <text x="180" y="445" fill="#cbd5e1" font-family="Inter, Arial, sans-serif" font-size="18" font-weight="800">Items</text>
  <text x="180" y="525" fill="#cbd5e1" font-family="Inter, Arial, sans-serif" font-size="18" font-weight="800">Payment</text>
  <text x="228" y="627" fill="#03111f" font-family="Inter, Arial, sans-serif" font-size="18" font-weight="900">Generate PDF</text>
  <rect x="572" y="220" width="600" height="560" rx="34" fill="#06101f" stroke="#38bdf8" stroke-opacity=".3" filter="url(#shadow)"/>
  <text x="620" y="286" fill="#f8fbff" font-family="Inter, Arial, sans-serif" font-size="34" font-weight="900">Daily Business Overview</text>
  <g transform="translate(620 336)">
    <rect width="230" height="112" rx="22" fill="#0f2137" stroke="#38bdf8" stroke-opacity=".22"/>
    <rect x="270" width="230" height="112" rx="22" fill="#0f2137" stroke="#38bdf8" stroke-opacity=".22"/>
    <rect y="148" width="230" height="112" rx="22" fill="#0f2137" stroke="#38bdf8" stroke-opacity=".22"/>
    <rect x="270" y="148" width="230" height="112" rx="22" fill="#0f2137" stroke="#38bdf8" stroke-opacity=".22"/>
    <text x="24" y="42" fill="#94a3b8" font-family="Inter, Arial, sans-serif" font-size="17">Invoices</text>
    <text x="294" y="42" fill="#94a3b8" font-family="Inter, Arial, sans-serif" font-size="17">Customers</text>
    <text x="24" y="190" fill="#94a3b8" font-family="Inter, Arial, sans-serif" font-size="17">Inventory</text>
    <text x="294" y="190" fill="#94a3b8" font-family="Inter, Arial, sans-serif" font-size="17">Reports</text>
    <text x="24" y="82" fill="#38bdf8" font-family="Inter, Arial, sans-serif" font-size="32" font-weight="900">246</text>
    <text x="294" y="82" fill="#38bdf8" font-family="Inter, Arial, sans-serif" font-size="32" font-weight="900">1,280</text>
    <text x="24" y="230" fill="#38bdf8" font-family="Inter, Arial, sans-serif" font-size="32" font-weight="900">Live</text>
    <text x="294" y="230" fill="#38bdf8" font-family="Inter, Arial, sans-serif" font-size="32" font-weight="900">Ready</text>
  </g>
  <rect x="620" y="650" width="500" height="72" rx="20" fill="#0b1a2c" stroke="#38bdf8" stroke-opacity=".22"/>
  <rect x="652" y="684" width="300" height="10" rx="5" fill="#38bdf8"/>
  <rect x="1216" y="250" width="342" height="500" rx="32" fill="#06101f" stroke="#38bdf8" stroke-opacity=".3" filter="url(#shadow)"/>
  <text x="1260" y="314" fill="#f8fbff" font-family="Inter, Arial, sans-serif" font-size="28" font-weight="900">Workflow</text>
  <g transform="translate(1260 364)" fill="none" stroke="#38bdf8" stroke-width="3">
    <circle cx="40" cy="40" r="34"/>
    <circle cx="40" cy="152" r="34"/>
    <circle cx="40" cy="264" r="34"/>
    <path d="M40 74v44M40 186v44"/>
  </g>
  <g transform="translate(1328 392)" fill="#dbeafe" font-family="Inter, Arial, sans-serif" font-size="18" font-weight="800">
    <text x="0" y="0">Bill</text>
    <text x="0" y="112">Collect</text>
    <text x="0" y="224">Report</text>
  </g>
</svg>
